# xmcd
#
# Track frame offsets:
#	150
#	29770
#	51511
#	82425
#	120828
#	146359
#	166146
#	191920
#	235299
#	266140
#	280262
#	313689
#
# Disc length: 4483 seconds
#
# Revision: 0
# Processed by: cddbd v1.5.2PL0 Copyright (c) Steve Scherf et al.
# Submitted via: EasyCDDAExtractor 16.0.1.1
#
DISCID=b611810c
DTITLE=Eric Gales - Eric Gales Live
DYEAR=2012
DGENRE=Blues Rock
TTITLE0=The Open Road
TTITLE1=Layin Down The Blues
TTITLE2=Change In Me
TTITLE3=Freedom From My Demons
TTITLE4=Make It There
TTITLE5=Me And My Guitar
TTITLE6=Universal Peace Pipe
TTITLE7=Wings Of Rock and Roll
TTITLE8=The Liar
TTITLE9=Double Dippin
TTITLE10=Dark Corners Of My Mind
TTITLE11=Retribution
EXTD=
EXTT0=
EXTT1=
EXTT2=
EXTT3=
EXTT4=
EXTT5=
EXTT6=
EXTT7=
EXTT8=
EXTT9=
EXTT10=
EXTT11=
PLAYORDER=
